<?xml version="1.0" encoding="utf-8"?>
<!-- Generator: Adobe Illustrator 16.0.0, SVG Export Plug-In . SVG Version: 6.00 Build 0)  -->
<!DOCTYPE svg PUBLIC "-//W3C//DTD SVG 1.1//EN" "http://www.w3.org/Graphics/SVG/1.1/DTD/svg11.dtd">
<svg version="1.1" id="Layer_1" xmlns="http://www.w3.org/2000/svg" xmlns:xlink="http://www.w3.org/1999/xlink" x="0px" y="0px"
	 width="500px" height="500px" viewBox="0 0 500 500" enable-background="new 0 0 500 500" xml:space="preserve">
<g>
	<g>
		<path fill="#ffffff" d="M89.021,62.014c1.548,2.768,2.947,5.152,4.238,7.593c6.981,13.188,13.919,26.4,20.904,39.586
			c9.09,17.161,18.229,34.295,27.317,51.456c6.799,12.839,13.529,25.712,20.328,38.551c4.182,7.894,8.405,15.765,12.69,23.605
			c0.811,1.494,0.787,2.634-0.182,4.069c-7.274,10.775-12.776,22.448-16.421,34.884c-2.06,7.027-3.207,14.336-4.567,21.555
			c-1.994,10.59-1.625,21.311-0.732,31.938c0.562,6.676,2.288,13.275,3.723,19.855c1.992,9.133,5.409,17.778,9.571,26.117
			c8.165,16.346,18.946,30.666,32.875,42.604c7.841,6.724,16.283,12.5,25.366,17.379c0.478,0.252,0.965,0.504,1.464,0.723
			c0.197,0.095,0.436,0.082,0.917,0.146c0.06-0.809,0.179-1.544,0.159-2.279c-0.582-21.447-1.192-42.915-1.768-64.374
			c-0.27-10.063-0.447-20.132-0.71-30.195c-0.105-4.06-0.22-8.119-0.537-12.16c-0.231-2.965,0.887-5.088,2.952-7.139
			c13.246-13.171,26.429-26.412,39.544-39.703c1.666-1.687,3.346-2.373,5.726-2.416c8.664-0.143,17.325-0.465,25.979-0.884
			c2.619-0.129,4.492,0.604,6.386,2.497c13.566,13.553,27.145,27.1,41.016,40.338c2.408,2.295,2.96,4.422,3.028,7.356
			c0.517,21.772,1.146,43.538,1.715,65.31c0.304,11.626,0.539,23.256,0.831,34.882c0.058,2.315,0.225,4.625,0.373,7.585
			c3.153-1.817,5.849-3.262,8.438-4.888c12.349-7.708,23.116-17.27,32.359-28.464c7.858-9.516,14.564-19.865,19.169-31.354
			c3.135-7.813,5.8-15.844,8.124-23.939c1.339-4.653,1.364-9.665,2.363-14.438c1.847-8.828,0.953-17.722,0.858-26.578
			c-0.044-4.072-0.896-8.162-1.65-12.192c-1.02-5.474-1.937-11.003-3.563-16.306c-1.787-5.834-4.111-11.528-6.578-17.116
			c-7.156-16.231-17.312-30.41-30.173-42.592c-11.565-10.954-24.604-19.808-39.396-25.846c-6.432-2.625-12.998-5.069-19.704-6.826
			c-6.407-1.679-13.053-2.522-19.637-3.425c-4.465-0.613-9.01-0.611-13.498-1.079c-0.873-0.091-1.976-0.89-2.418-1.676
			c-3.303-5.995-6.465-12.056-9.67-18.097c-5.641-10.634-11.293-21.264-16.918-31.903c-4.725-8.927-9.372-17.889-14.104-26.804
			c-6.847-12.9-13.753-25.769-20.611-38.66c-4.812-9.058-9.579-18.139-14.374-27.206c-2.18-4.122-4.258-8.306-6.614-12.318
			c-1.019-1.742-0.353-2.254,1.11-2.565c2.665-0.558,5.334-1.129,8.027-1.515C226.34,3.16,240.01,2.124,253.723,2.3
			c7.398,0.098,14.795,0.806,22.166,1.507c6.178,0.578,12.358,1.325,18.467,2.403c5.541,0.985,11.021,2.382,16.462,3.853
			c7.388,1.995,14.823,3.919,22.031,6.462c7.284,2.569,14.343,5.796,21.451,8.844c12.758,5.468,24.658,12.51,36.097,20.302
			c12.463,8.487,24.045,18.101,34.692,28.795c11.243,11.291,21.392,23.49,30.347,36.692c9.849,14.522,18.045,29.935,24.609,46.154
			c3.449,8.522,6.004,17.418,8.66,26.235c1.893,6.282,3.507,12.676,4.823,19.106c1.134,5.538,1.568,11.215,2.492,16.799
			c2.415,14.631,2.277,29.379,1.71,44.098c-0.318,8.212-1.695,16.392-2.751,24.566c-0.604,4.683-1.326,9.368-2.348,13.977
			c-1.254,5.665-2.643,11.314-4.389,16.843c-2.354,7.447-5.003,14.808-7.699,22.145c-4.141,11.255-9.508,21.938-15.456,32.338
			c-11.965,20.93-26.726,39.663-44.231,56.227c-14.73,13.935-30.777,26.145-48.615,35.798c-9.803,5.305-19.88,10.22-30.174,14.476
			c-8.619,3.572-17.678,6.139-26.647,8.789c-6.592,1.941-13.318,3.516-20.064,4.853c-5.545,1.104-11.196,1.689-16.814,2.393
			c-6.012,0.757-12.029,1.766-18.064,1.932c-7.606,0.209-15.224-0.313-22.833-0.559c-1.009-0.032-2.012-0.268-3.02-0.36
			c-7.668-0.712-15.376-1.122-22.992-2.209c-5.96-0.845-11.813-2.462-17.699-3.814c-4.671-1.071-9.386-2.028-13.959-3.433
			c-6.126-1.879-12.221-3.927-18.175-6.292c-6.832-2.71-13.572-5.683-20.218-8.828c-14.741-6.967-28.556-15.536-41.453-25.47
			c-11.752-9.045-22.655-19.046-32.659-30.08c-11.831-13.047-22.371-27.014-30.954-42.332c-5.754-10.276-10.691-21.016-15.62-31.731
			c-2.35-5.098-3.902-10.586-5.676-15.94c-1.722-5.203-3.378-10.437-4.846-15.717c-0.99-3.563-1.655-7.224-2.372-10.859
			c-0.94-4.782-1.823-9.587-2.669-14.394c-0.507-2.899-1.078-5.811-1.297-8.742c-1.136-15.184-2.02-30.377-0.474-45.587
			c0.77-7.578,1.445-15.179,2.609-22.699c0.897-5.802,2.396-11.516,3.795-17.229c1.269-5.182,2.579-10.371,4.202-15.452
			c2.048-6.408,4.24-12.784,6.707-19.041c6.006-15.229,13.627-29.654,22.652-43.304C53.88,98.153,65.758,83.733,79.494,70.886
			C82.56,68.023,85.631,65.172,89.021,62.014z M320.418,399.386c0.186-0.033,0.372-0.067,0.561-0.104
			c-1.002-5.64-1.478-11.438-3.137-16.878c-2.271-7.457-5.088-14.801-8.304-21.895c-5.935-13.115-13.415-25.4-21.067-37.568
			c-1.039-1.651-1.58-1.506-2.541,0.097c-4.313,7.198-9.031,14.176-13.037,21.54c-4.477,8.222-8.752,16.609-12.338,25.248
			c-2.586,6.229-4.222,12.915-5.688,19.529c-1.751,7.835-1.822,15.743,1.232,23.408c3.592,8.992,10.605,14.191,19.434,17.137
			c5.518,1.847,11.218,2.105,17.072,1.311c7.812-1.062,14.37-4.353,19.809-9.87C318.38,415.286,320.607,407.748,320.418,399.386z"/>
		<path fill="#ffffff" d="M288.361,422.027c-1.942-0.41-3.957-0.623-5.791-1.313c-0.707-0.266-1.615-2.02-1.369-2.392
			c0.581-0.878,1.747-1.728,2.773-1.869c1.58-0.219,3.237,0.231,4.875,0.299c7.627,0.27,13.502-4.804,15.643-11.591
			c0.605-1.926,1.619-2.646,3.412-2.002c1.912,0.688,1.812,2.083,1.218,3.809c-2.725,7.903-8.399,12.479-16.267,14.524
			c-1.383,0.36-2.943,0.053-4.422,0.053C288.41,421.703,288.386,421.861,288.361,422.027z"/>
	</g>
</g>
</svg>
